{"title":"Street Dance 2 2012 720p BRRiP ~ Kishan(Wall.e)","uid":7895944,"size":1053800048,"categoryP":"video","categoryS":"hd___movies","magnet":"?xt=urn:btih:4f5cde710a3904591cf16466b9938b48450a7d78&amp;dn=Street+Dance+2+2012+720p+BRRiP+%7E+Kishan%28Wall.e%29&amp;tr=udp%3A%2F%2Ftracker.openbittorrent.com%3A80&amp;tr=udp%3A%2F%2Fopen.demonii.com%3A1337&amp;tr=udp%3A%2F%2Ftracker.coppersurfer.tk%3A6969&amp;tr=udp%3A%2F%2Fexodus.desync.com%3A6969","seeders":1,"leechers":0,"uploader":"wall.e","files":10,"time":1354837581,"description":"General :\nFormat                                   : Matroska\nFile size                                : 994 MiB\nDuration                                 : 1h 24mn\nOverall bit rate                         : 1 636 Kbps\nMovie name                               : Street Dance 2 2012 720p BRRiP ~ Kishan(Wall.e)\n\nVideo :\nID                                       : 1\nFormat                                   : AVC\nDuration                                 : 1h 24mn\nBit rate                                 : 1 000 Kbps\nWidth                                    : 1 278 pixels\nHeight                                   : 688 pixels\nDisplay aspect ratio                     : 1.85:1\nFrame rate                               : 23.976 fps\nStream size                              : 585 MiB (59%)\nTitle                                    : Street Dance 2 2012 720p BRRiP ~ Kishan(Wall.e)\nLanguage                                 : English\n\nAudio :\nID                                       : 2\nFormat                                   : AC-3\nFormat settings, Endianness              : Big\nCodec ID                                 : A_AC3\nDuration                                 : 1h 24mn\nBit rate mode                            : Constant\nBit rate                                 : 640 Kbps\nChannel(s)                               : 6 channels\nChannel positions                        : Front: L C R, Side: L R, LFE\nStream size                              : 389 MiB (39%)\nTitle                                    : AC3 Audio ~ Kishan(Wall.e)\nLanguage                                 : English\nThanks To LEGi0N For Video Source\n","torrent":{"xt":"urn:btih:4f5cde710a3904591cf16466b9938b48450a7d78","amp;dn":"Street+Dance+2+2012+720p+BRRiP+%7E+Kishan%28Wall.e%29","amp;tr":["udp%3A%2F%2Ftracker.openbittorrent.com%3A80","udp%3A%2F%2Fopen.demonii.com%3A1337","udp%3A%2F%2Ftracker.coppersurfer.tk%3A6969","udp%3A%2F%2Fexodus.desync.com%3A6969"],"infoHash":"4f5cde710a3904591cf16466b9938b48450a7d78","infoHashBuffer":{"type":"Buffer","data":[79,92,222,113,10,57,4,89,28,241,100,102,185,147,139,72,69,10,125,120]},"announce":[],"urlList":[]}}